<svg t="1673965091239" class="icon" viewBox="0 0 1024 1024" version="1.1" xmlns="http://www.w3.org/2000/svg" p-id="6606" width="100" height="100"><path d="M248 936H150.4V87.2h714.4v446.4h69.6V79.2c0-34.4-27.2-61.6-60.8-61.6H142.4c-33.6 0-60.8 28-60.8 61.6v866.4c0 34.4 27.2 61.6 60.8 61.6h106.4" p-id="6607"></path><path d="M262.4 319.2h488v61.6h-488zM262.4 443.2h148v61.6H262.4zM264 195.2h488v61.6H264zM262.4 567.2h102.4v61.6H262.4zM936 964.8c-0.8-12.8-3.2-24-7.2-35.2-4-13.6-11.2-25.6-20.8-36l-2.4-2.4c-12.8-11.2-28-19.2-44-24.8-18.4-7.2-38.4-15.2-61.6-23.2h-0.8c-16-5.6-31.2-12-46.4-19.2-8-4-14.4-10.4-18.4-18.4v-0.8c-4.8-8-7.2-16-7.2-25.6 0.8-5.6 4-11.2 8-15.2l3.2-3.2c7.2-9.6 13.6-19.2 17.6-30.4 20-13.6 31.2-36.8 29.6-60.8 0.8-12.8-1.6-25.6-7.2-37.6 0.8-9.6 2.4-21.6 4-36.8 1.6-20-1.6-40-10.4-58.4-8-17.6-18.4-33.6-32-47.2-13.6-13.6-29.6-24.8-47.2-32.8-17.6-8.8-37.6-12.8-57.6-12.8s-40 4.8-57.6 12.8-33.6 19.2-47.2 32.8c-13.6 13.6-24.8 29.6-32 47.2-8 18.4-11.2 38.4-10.4 58.4 1.6 15.2 2.4 27.2 4 36.8-4.8 12-7.2 24.8-6.4 37.6-1.6 24 10.4 47.2 29.6 60.8 4.8 11.2 10.4 20.8 17.6 30.4 0.8 0.8 1.6 2.4 3.2 3.2 4 4 7.2 9.6 8 15.2 0 8.8-3.2 17.6-7.2 25.6v0.8c-4 8-10.4 14.4-18.4 18.4-15.2 7.2-30.4 13.6-46.4 19.2h-0.8c-22.4 8-43.2 16-61.6 23.2-16 5.6-31.2 14.4-44 24.8l-2.4 2.4c-9.6 10.4-16.8 22.4-20.8 36-4 11.2-6.4 22.4-7.2 34.4v0.8l-0.8 11.2c-0.8 16 11.2 28.8 27.2 29.6h546.4c16 0 28.8-12.8 28.8-28.8v-1.6c0 0.8-0.8-10.4-0.8-10.4z m-74.4-32l-199.2 1.6v-76.8c0-14.4-11.2-28-25.6-28-15.2-0.8-28 11.2-28 26.4v78.4H411.2v-0.8c0-0.8 0-0.8 0.8-1.6 1.6-4.8 3.2-8.8 6.4-12 7.2-5.6 15.2-10.4 24-12.8 0.8 0 0.8 0 1.6-0.8 16-6.4 35.2-13.6 56-21.6 16.8-5.6 33.6-12.8 49.6-20h0.8c16.8-8.8 31.2-22.4 40-39.2 8.8-16 13.6-33.6 13.6-51.2v-3.2c-2.4-17.6-10.4-34.4-22.4-46.4-4.8-6.4-8-12.8-10.4-20-2.4-8-8-14.4-15.2-17.6-4-1.6-7.2-6.4-6.4-10.4v-5.6c-0.8-5.6 0.8-10.4 3.2-15.2 3.2-5.6 4-11.2 3.2-17.6-1.6-8.8-2.4-21.6-4-40-0.8-9.6 0.8-20 4.8-28.8v-0.8c4.8-10.4 10.4-20 18.4-28s18.4-15.2 28.8-20h0.8c9.6-4.8 20.8-7.2 31.2-7.2s21.6 2.4 31.2 7.2h0.8c10.4 4.8 20.8 11.2 28.8 20 8 8 14.4 17.6 19.2 28v0.8c4 8.8 5.6 19.2 4.8 28.8-1.6 18.4-3.2 32-4 40.8-0.8 5.6 0.8 12 4 16.8 2.4 4 4 9.6 3.2 14.4v5.6c0.8 4.8-2.4 8.8-6.4 10.4-7.2 3.2-12.8 8.8-15.2 16-2.4 7.2-6.4 14.4-11.2 20.8-12.8 12.8-20.8 28.8-22.4 46.4v3.2c0 18.4 4.8 36 13.6 51.2 9.6 16.8 23.2 30.4 40 39.2h0.8c16 8 32.8 14.4 49.6 20 20.8 7.2 39.2 14.4 56 21.6 0.8 0 0.8 0 1.6 0.8 8.8 3.2 16.8 7.2 24 12.8 3.2 3.2 5.6 8 6.4 12 0 0.8 0 0.8 0.8 1.6v0.8z" p-id="6608"></path></svg>
